{"asset":{"generator":"FBX2glTF v0.9.7","version":"2.0"},"scene":0,"extensionsUsed":["KHR_lights_punctual"],"buffers":[{"byteLength":2117308,"uri":"data:application/octet-stream;base64,"}],"bufferViews":[{"buffer":0,"byteLength":18204,"byteOffset":0},{"buffer":0,"byteLength":72816,"byteOffset":18204},{"buffer":0,"byteLength":72816,"byteOffset":91020},{"buffer":0,"byteLength":72816,"byteOffset":163836},{"buffer":0,"byteLength":72816,"byteOffset":236652},{"buffer":0,"byteLength":72816,"byteOffset":309468},{"buffer":0,"byteLength":72816,"byteOffset":382284},{"buffer":0,"byteLength":72816,"byteOffset":455100},{"buffer":0,"byteLength":72816,"byteOffset":527916},{"buffer":0,"byteLength":72816,"byteOffset":600732},{"buffer":0,"byteLength":6144,"byteOffset":673548,"target":34963},{"buffer":0,"byteLength":7680,"byteOffset":679692,"target":34962},{"buffer":0,"byteLength":7680,"byteOffset":687372,"target":34962},{"buffer":0,"byteLength":10240,"byteOffset":695052,"target":34962},{"buffer":0,"byteLength":8928,"byteOffset":705292,"target":34963},{"buffer":0,"byteLength":11532,"byteOffset":714220,"target":34962},{"buffer":0,"byteLength":11532,"byteOffset":725752,"target":34962},{"buffer":0,"byteLength":1920,"byteOffset":737284,"target":34963},{"buffer":0,"byteLength":11520,"byteOffset":739204,"target":34962},{"buffer":0,"byteLength":11520,"byteOffset":750724,"target":34962},{"buffer":0,"byteLength":2136,"byteOffset":762244,"target":34963},{"buffer":0,"byteLength":7008,"byteOffset":764380,"target":34962},{"buffer":0,"byteLength":7008,"byteOffset":771388,"target":34962},{"buffer":0,"byteLength":17016,"byteOffset":778396,"target":34963},{"buffer":0,"byteLength":68076,"byteOffset":795412,"target":34962},{"buffer":0,"byteLength":68076,"byteOffset":863488,"target":34962},{"buffer":0,"byteLength":39936,"byteOffset":931564,"target":34963},{"buffer":0,"byteLength":39936,"byteOffset":971500,"target":34962},{"buffer":0,"byteLength":39936,"byteOffset":1011436,"target":34962},{"buffer":0,"byteLength":39936,"byteOffset":1051372,"target":34963},{"buffer":0,"byteLength":39936,"byteOffset":1091308,"target":34962},{"buffer":0,"byteLength":39936,"byteOffset":1131244,"target":34962},{"buffer":0,"byteLength":39936,"byteOffset":1171180,"target":34963},{"buffer":0,"byteLength":39936,"byteOffset":1211116,"target":34962},{"buffer":0,"byteLength":39936,"byteOffset":1251052,"target":34962},{"buffer":0,"byteLength":39936,"byteOffset":1290988,"target":34963},{"buffer":0,"byteLength":39936,"byteOffset":1330924,"target":34962},{"buffer":0,"byteLength":39936,"byteOffset":1370860,"target":34962},{"buffer":0,"byteLength":39936,"byteOffset":1410796,"target":34963},{"buffer":0,"byteLength":39936,"byteOffset":1450732,"target":34962},{"buffer":0,"byteLength":39936,"byteOffset":1490668,"target":34962},{"buffer":0,"byteLength":39936,"byteOffset":1530604,"target":34963},{"buffer":0,"byteLength":39936,"byteOffset":1570540,"target":34962},{"buffer":0,"byteLength":39936,"byteOffset":1610476,"target":34962},{"buffer":0,"byteLength":39936,"byteOffset":1650412,"target":34963},{"buffer":0,"byteLength":39936,"byteOffset":1690348,"target":34962},{"buffer":0,"byteLength":39936,"byteOffset":1730284,"target":34962},{"buffer":0,"byteLength":16320,"byteOffset":1770220,"target":34963},{"buffer":0,"byteLength":16632,"byteOffset":1786540,"target":34962},{"buffer":0,"byteLength":16632,"byteOffset":1803172,"target":34962},{"buffer":0,"byteLength":16320,"byteOffset":1819804,"target":34963},{"buffer":0,"byteLength":16632,"byteOffset":1836124,"target":34962},{"buffer":0,"byteLength":16632,"byteOffset":1852756,"target":34962},{"buffer":0,"byteLength":16320,"byteOffset":1869388,"target":34963},{"buffer":0,"byteLength":16632,"byteOffset":1885708,"target":34962},{"buffer":0,"byteLength":16632,"byteOffset":1902340,"target":34962},{"buffer":0,"byteLength":16320,"byteOffset":1918972,"target":34963},{"buffer":0,"byteLength":16632,"byteOffset":1935292,"target":34962},{"buffer":0,"byteLength":16632,"byteOffset":1951924,"target":34962},{"buffer":0,"byteLength":16320,"byteOffset":1968556,"target":34963},{"buffer":0,"byteLength":16632,"byteOffset":1984876,"target":34962},{"buffer":0,"byteLength":16632,"byteOffset":2001508,"target":34962},{"buffer":0,"byteLength":16320,"byteOffset":2018140,"target":34963},{"buffer":0,"byteLength":16632,"byteOffset":2034460,"target":34962},{"buffer":0,"byteLength":16632,"byteOffset":2051092,"target":34962},{"buffer":0,"byteLength":16320,"byteOffset":2067724,"target":34963},{"buffer":0,"byteLength":16632,"byteOffset":2084044,"target":34962},{"buffer":0,"byteLength":16632,"byteOffset":2100676,"target":34962}],"scenes":[{"name":"Root Scene","nodes":[0]}],"accessors":[{"componentType":5126,"type":"SCALAR","count":4551,"bufferView":0,"byteOffset":0,"min":[0],"max":[189.58332824707]},{"componentType":5126,"type":"VEC4","count":4551,"bufferView":1,"byteOffset":0},{"componentType":5126,"type":"VEC4","count":4551,"bufferView":2,"byteOffset":0},{"componentType":5126,"type":"VEC4","count":4551,"bufferView":3,"byteOffset":0},{"componentType":5126,"type":"VEC4","count":4551,"bufferView":4,"byteOffset":0},{"componentType":5126,"type":"VEC4","count":4551,"bufferView":5,"byteOffset":0},{"componentType":5126,"type":"VEC4","count":4551,"bufferView":6,"byteOffset":0},{"componentType":5126,"type":"VEC4","count":4551,"bufferView":7,"byteOffset":0},{"componentType":5126,"type":"VEC4","count":4551,"bufferView":8,"byteOffset":0},{"componentType":5126,"type":"VEC4","count":4551,"bufferView":9,"byteOffset":0},{"componentType":5123,"type":"SCALAR","count":3072,"bufferView":10,"byteOffset":0},{"componentType":5126,"type":"VEC3","count":640,"bufferView":11,"byteOffset":0,"min":[-0.0757322162389755,-0.0757321640849113,9.99999993922529e-9],"max":[0.0757322162389755,0.0757322162389755,0.0766732692718506]},{"componentType":5126,"type":"VEC3","count":640,"bufferView":12,"byteOffset":0},{"componentType":5126,"type":"VEC4","count":640,"bufferView":13,"byteOffset":0},{"componentType":5123,"type":"SCALAR","count":4464,"bufferView":14,"byteOffset":0},{"componentType":5126,"type":"VEC3","count":961,"bufferView":15,"byteOffset":0,"min":[-0.0833536311984062,-0.0833536237478256,0.000254090002272278],"max":[0.0833536311984062,0.0833536386489868,0.0150030991062522]},{"componentType":5126,"type":"VEC3","count":961,"bufferView":16,"byteOffset":0},{"componentType":5123,"type":"SCALAR","count":960,"bufferView":17,"byteOffset":0},{"componentType":5126,"type":"VEC3","count":960,"bufferView":18,"byteOffset":0,"min":[-0.0106633696705103,-0.0106633696705103,-0.0106633696705103],"max":[0.0106633696705103,0.0106633696705103,0.0106633696705103]},{"componentType":5126,"type":"VEC3","count":960,"bufferView":19,"byteOffset":0},{"componentType":5123,"type":"SCALAR","count":1068,"bufferView":20,"byteOffset":0},{"componentType":5126,"type":"VEC3","count":584,"bufferView":21,"byteOffset":0,"min":[-0.0910849198698997,-0.0286105610430241,-0.095881775021553],"max":[0.0982603654265404,0.0286105610430241,0.095881775021553]},{"componentType":5126,"type":"VEC3","count":584,"bufferView":22,"byteOffset":0},{"componentType":5123,"type":"SCALAR","count":8508,"bufferView":23,"byteOffset":0},{"componentType":5126,"type":"VEC3","count":5673,"bufferView":24,"byteOffset":0,"min":[-0.0916958302259445,-0.0292384400963783,-0.0966122671961784],"max":[0.0988693907856941,0.0292384400963783,0.0966122671961784]},{"componentType":5126,"type":"VEC3","count":5673,"bufferView":25,"byteOffset":0},{"componentType":5123,"type":"SCALAR","count":19968,"bufferView":26,"byteOffset":0},{"componentType":5126,"type":"VEC3","count":3328,"bufferView":27,"byteOffset":0,"min":[-0.116916708648205,-0.116924934089184,-0.106902956962585],"max":[0.116936318576336,0.116924941539764,0.106885030865669]},{"componentType":5126,"type":"VEC3","count":3328,"bufferView":28,"byteOffset":0},{"componentType":5123,"type":"SCALAR","count":19968,"bufferView":29,"byteOffset":0},{"componentType":5126,"type":"VEC3","count":3328,"bufferView":30,"byteOffset":0,"min":[-0.116916708648205,-0.116924934089184,-0.106902956962585],"max":[0.116936318576336,0.116924941539764,0.106885030865669]},{"componentType":5126,"type":"VEC3","count":3328,"bufferView":31,"byteOffset":0},{"componentType":5123,"type":"SCALAR","count":19968,"bufferView":32,"byteOffset":0},{"componentType":5126,"type":"VEC3","count":3328,"bufferView":33,"byteOffset":0,"min":[-0.116916708648205,-0.116924934089184,-0.106902956962585],"max":[0.116936318576336,0.116924941539764,0.106885030865669]},{"componentType":5126,"type":"VEC3","count":3328,"bufferView":34,"byteOffset":0},{"componentType":5123,"type":"SCALAR","count":19968,"bufferView":35,"byteOffset":0},{"componentType":5126,"type":"VEC3","count":3328,"bufferView":36,"byteOffset":0,"min":[-0.116916708648205,-0.116924934089184,-0.106902956962585],"max":[0.116936318576336,0.116924941539764,0.106885030865669]},{"componentType":5126,"type":"VEC3","count":3328,"bufferView":37,"byteOffset":0},{"componentType":5123,"type":"SCALAR","count":19968,"bufferView":38,"byteOffset":0},{"componentType":5126,"type":"VEC3","count":3328,"bufferView":39,"byteOffset":0,"min":[-0.116916708648205,-0.116924934089184,-0.106902956962585],"max":[0.116936318576336,0.116924941539764,0.106885030865669]},{"componentType":5126,"type":"VEC3","count":3328,"bufferView":40,"byteOffset":0},{"componentType":5123,"type":"SCALAR","count":19968,"bufferView":41,"byteOffset":0},{"componentType":5126,"type":"VEC3","count":3328,"bufferView":42,"byteOffset":0,"min":[-0.116916708648205,-0.116924934089184,-0.106902956962585],"max":[0.116936318576336,0.116924941539764,0.106885030865669]},{"componentType":5126,"type":"VEC3","count":3328,"bufferView":43,"byteOffset":0},{"componentType":5123,"type":"SCALAR","count":19968,"bufferView":44,"byteOffset":0},{"componentType":5126,"type":"VEC3","count":3328,"bufferView":45,"byteOffset":0,"min":[-0.116916708648205,-0.116924934089184,-0.106902956962585],"max":[0.116936318576336,0.116924941539764,0.106885030865669]},{"componentType":5126,"type":"VEC3","count":3328,"bufferView":46,"byteOffset":0},{"componentType":5123,"type":"SCALAR","count":8160,"bufferView":47,"byteOffset":0},{"componentType":5126,"type":"VEC3","count":1386,"bufferView":48,"byteOffset":0,"min":[-0.130015701055527,-0.124227538704872,-0.116093166172504],"max":[0.128477081656456,0.112977787852287,0.12796026468277]},{"componentType":5126,"type":"VEC3","count":1386,"bufferView":49,"byteOffset":0},{"componentType":5123,"type":"SCALAR","count":8160,"bufferView":50,"byteOffset":0},{"componentType":5126,"type":"VEC3","count":1386,"bufferView":51,"byteOffset":0,"min":[-0.130015701055527,-0.124227538704872,-0.116093166172504],"max":[0.128477081656456,0.112977787852287,0.12796026468277]},{"componentType":5126,"type":"VEC3","count":1386,"bufferView":52,"byteOffset":0},{"componentType":5123,"type":"SCALAR","count":8160,"bufferView":53,"byteOffset":0},{"componentType":5126,"type":"VEC3","count":1386,"bufferView":54,"byteOffset":0,"min":[-0.130015701055527,-0.124227538704872,-0.116093166172504],"max":[0.128477081656456,0.112977787852287,0.12796026468277]},{"componentType":5126,"type":"VEC3","count":1386,"bufferView":55,"byteOffset":0},{"componentType":5123,"type":"SCALAR","count":8160,"bufferView":56,"byteOffset":0},{"componentType":5126,"type":"VEC3","count":1386,"bufferView":57,"byteOffset":0,"min":[-0.130015701055527,-0.124227538704872,-0.116093166172504],"max":[0.128477081656456,0.112977787852287,0.12796026468277]},{"componentType":5126,"type":"VEC3","count":1386,"bufferView":58,"byteOffset":0},{"componentType":5123,"type":"SCALAR","count":8160,"bufferView":59,"byteOffset":0},{"componentType":5126,"type":"VEC3","count":1386,"bufferView":60,"byteOffset":0,"min":[-0.130015701055527,-0.124227538704872,-0.116093166172504],"max":[0.128477081656456,0.112977787852287,0.12796026468277]},{"componentType":5126,"type":"VEC3","count":1386,"bufferView":61,"byteOffset":0},{"componentType":5123,"type":"SCALAR","count":8160,"bufferView":62,"byteOffset":0},{"componentType":5126,"type":"VEC3","count":1386,"bufferView":63,"byteOffset":0,"min":[-0.130015701055527,-0.124227538704872,-0.116093166172504],"max":[0.128477081656456,0.112977787852287,0.12796026468277]},{"componentType":5126,"type":"VEC3","count":1386,"bufferView":64,"byteOffset":0},{"componentType":5123,"type":"SCALAR","count":8160,"bufferView":65,"byteOffset":0},{"componentType":5126,"type":"VEC3","count":1386,"bufferView":66,"byteOffset":0,"min":[-0.130015701055527,-0.124227538704872,-0.116093166172504],"max":[0.128477081656456,0.112977787852287,0.12796026468277]},{"componentType":5126,"type":"VEC3","count":1386,"bufferView":67,"byteOffset":0}],"samplers":[{}],"materials":[{"name":"Drohn_1","alphaMode":"OPAQUE","extras":{"fromFBX":{"shadingModel":"Lambert","isTruePBR":false}},"pbrMetallicRoughness":{"baseColorFactor":[0.158879995346069,0.158879995346069,0.158879995346069,1],"metallicFactor":0.200000002980232,"roughnessFactor":0.800000011920929}},{"name":"Material_006","alphaMode":"OPAQUE","extras":{"fromFBX":{"shadingModel":"Lambert","isTruePBR":false}},"pbrMetallicRoughness":{"baseColorFactor":[0.00875320006161928,0.0142655000090599,0.221599996089935,0],"metallicFactor":0.200000002980232,"roughnessFactor":0.800000011920929}},{"name":"Material_001","alphaMode":"OPAQUE","extras":{"fromFBX":{"shadingModel":"Lambert","isTruePBR":false}},"emissiveFactor":[0.230800002813339,1,0],"pbrMetallicRoughness":{"baseColorFactor":[0.0923200026154518,0.639999985694885,0,0.445899993181229],"metallicFactor":0.200000002980232,"roughnessFactor":0.800000011920929}},{"name":"Material_002","alphaMode":"OPAQUE","extras":{"fromFBX":{"shadingModel":"Lambert","isTruePBR":false}},"emissiveFactor":[1,1,0.778800010681152],"pbrMetallicRoughness":{"baseColorFactor":[0.452591240406036,0.537280023097992,0.26152104139328,1],"metallicFactor":0.200000002980232,"roughnessFactor":0.800000011920929}},{"name":"Material_011","alphaMode":"OPAQUE","extras":{"fromFBX":{"shadingModel":"Lambert","isTruePBR":false}},"pbrMetallicRoughness":{"baseColorFactor":[0.59824001789093,0.639999985694885,0.621280014514923,0.0190999992191792],"metallicFactor":0.200000002980232,"roughnessFactor":0.800000011920929}},{"name":"Material_014","alphaMode":"OPAQUE","extras":{"fromFBX":{"shadingModel":"Lambert","isTruePBR":false}},"emissiveFactor":[0.145999997854233,1,1],"pbrMetallicRoughness":{"baseColorFactor":[0.0584000013768673,0.454239994287491,0.639999985694885,0.458499997854233],"metallicFactor":0.200000002980232,"roughnessFactor":0.800000011920929}},{"name":"Red","alphaMode":"OPAQUE","extras":{"fromFBX":{"shadingModel":"Lambert","isTruePBR":false}},"emissiveFactor":[1,0.0368000008165836,0],"pbrMetallicRoughness":{"baseColorFactor":[0.639999985694885,0.0147200003266335,0,1],"metallicFactor":0.200000002980232,"roughnessFactor":0.800000011920929}}],"meshes":[{"name":"Sphere_001","primitives":[{"material":4,"mode":4,"attributes":{"COLOR_0":13,"NORMAL":12,"POSITION":11},"indices":10}]},{"name":"3d-Hologramm","primitives":[{"material":0,"mode":4,"attributes":{"NORMAL":16,"POSITION":15},"indices":14}]},{"name":"Icosphere","primitives":[{"material":1,"mode":4,"attributes":{"NORMAL":19,"POSITION":18},"indices":17}]},{"name":"Cube","primitives":[{"material":2,"mode":4,"attributes":{"NORMAL":22,"POSITION":21},"indices":20},{"material":3,"mode":4,"attributes":{"NORMAL":25,"POSITION":24},"indices":23}]},{"name":"Torus_004","primitives":[{"material":5,"mode":4,"attributes":{"NORMAL":28,"POSITION":27},"indices":26},{"material":6,"mode":4,"attributes":{"NORMAL":49,"POSITION":48},"indices":47}]},{"name":"Torus_000","primitives":[{"material":5,"mode":4,"attributes":{"NORMAL":31,"POSITION":30},"indices":29},{"material":6,"mode":4,"attributes":{"NORMAL":52,"POSITION":51},"indices":50}]},{"name":"Torus_001","primitives":[{"material":5,"mode":4,"attributes":{"NORMAL":34,"POSITION":33},"indices":32},{"material":6,"mode":4,"attributes":{"NORMAL":55,"POSITION":54},"indices":53}]},{"name":"Torus_002","primitives":[{"material":5,"mode":4,"attributes":{"NORMAL":37,"POSITION":36},"indices":35},{"material":6,"mode":4,"attributes":{"NORMAL":58,"POSITION":57},"indices":56}]},{"name":"Torus_003","primitives":[{"material":5,"mode":4,"attributes":{"NORMAL":40,"POSITION":39},"indices":38},{"material":6,"mode":4,"attributes":{"NORMAL":61,"POSITION":60},"indices":59}]},{"name":"Torus_021","primitives":[{"material":5,"mode":4,"attributes":{"NORMAL":43,"POSITION":42},"indices":41},{"material":6,"mode":4,"attributes":{"NORMAL":64,"POSITION":63},"indices":62}]},{"name":"Torus_022","primitives":[{"material":5,"mode":4,"attributes":{"NORMAL":46,"POSITION":45},"indices":44},{"material":6,"mode":4,"attributes":{"NORMAL":67,"POSITION":66},"indices":65}]}],"animations":[{"name":"Default Take","channels":[{"sampler":0,"target":{"node":3,"path":"rotation"}},{"sampler":1,"target":{"node":4,"path":"rotation"}},{"sampler":2,"target":{"node":5,"path":"rotation"}},{"sampler":3,"target":{"node":6,"path":"rotation"}},{"sampler":4,"target":{"node":7,"path":"rotation"}},{"sampler":5,"target":{"node":8,"path":"rotation"}},{"sampler":6,"target":{"node":9,"path":"rotation"}},{"sampler":7,"target":{"node":10,"path":"rotation"}},{"sampler":8,"target":{"node":11,"path":"rotation"}}],"samplers":[{"input":0,"interpolation":"LINEAR","output":1},{"input":0,"interpolation":"LINEAR","output":2},{"input":0,"interpolation":"LINEAR","output":3},{"input":0,"interpolation":"LINEAR","output":4},{"input":0,"interpolation":"LINEAR","output":5},{"input":0,"interpolation":"LINEAR","output":6},{"input":0,"interpolation":"LINEAR","output":7},{"input":0,"interpolation":"LINEAR","output":8},{"input":0,"interpolation":"LINEAR","output":9}]}],"nodes":[{"name":"RootNode","translation":[0,0,0],"rotation":[0,0,0,1],"scale":[1,1,1],"children":[1,13,14,15]},{"name":"3d-Hologramm","translation":[0,0,0],"rotation":[-0.707106828689575,0,0,0.707106709480286],"scale":[1,1,1],"children":[2,3,4,5,6,7,8,9,10,11,12],"mesh":1},{"name":"Icosphere","translation":[0,3.80937992261465e-9,0.191125229001045],"rotation":[-1.60338534895504e-23,0,0,1],"scale":[13.2069463729858,13.2069463729858,13.2069463729858],"mesh":2},{"name":"Cube","translation":[0,3.80937992261465e-9,0.191125229001045],"rotation":[1.08409943540639e-23,5.81795674381582e-19,0.00262017454952002,0.999996542930603],"scale":[1,1,1],"mesh":3},{"name":"Sphere_001","translation":[6.10947603618683e-9,-1.6577541561702e-9,0.0136494059115648],"rotation":[-1.0568210197343e-23,1.93524611853007e-17,0.087155744433403,0.99619472026825],"scale":[0.999999940395355,0.999999940395355,1],"mesh":0},{"name":"Torus_004","translation":[4.51610304708083e-9,3.80937992261465e-9,0.191125229001045],"rotation":[-0.00390741415321827,-0.000015268115021172,0.00390741415321827,0.999984741210938],"scale":[1,1,1],"mesh":4},{"name":"Torus_000","translation":[4.51610304708083e-9,3.80937992261465e-9,0.191125229001045],"rotation":[-0.0055048898793757,0.766022920608521,0.00550489034503698,0.642766118049622],"scale":[1.00675737857819,1.0067572593689,1.00675749778748],"mesh":5},{"name":"Torus_001","translation":[0,3.80937992261465e-9,0.191125229001045],"rotation":[-0.00316953705623746,0.984795451164246,0.0031695393845439,-0.173660129308701],"scale":[1.01755332946777,1.01755332946777,1.01755332946777],"mesh":6},{"name":"Torus_002","translation":[0,3.80937992261465e-9,0.191125229001045],"rotation":[-0.00143021205440164,-0.500005781650543,0.00143021205440164,0.866019725799561],"scale":[1.02720761299133,1.02720773220062,1.02720749378204],"mesh":7},{"name":"Torus_003","translation":[0,3.80937992261465e-9,0.191125229001045],"rotation":[-0.00500818202272058,0.342000395059586,0.00500818248838186,0.939673125743866],"scale":[1.03936862945557,1.03936874866486,1.03936874866486],"mesh":8},{"name":"Torus_021","translation":[0,3.80937992261465e-9,0.191125229001045],"rotation":[-0.00500818248838186,0.939672946929932,0.00500818295404315,0.342000812292099],"scale":[1.06334352493286,1.06334352493286,1.06334352493286],"mesh":9},{"name":"Torus_022","translation":[0,3.80937992261465e-9,0.191125258803368],"rotation":[0.00143021473195404,-0.866020083427429,-0.00143021531403065,0.500005125999451],"scale":[1.07499921321869,1.0749990940094,1.07499921321869],"mesh":10},{"name":"Point","translation":[4.51610304708083e-9,3.80937992261465e-9,0.191125229001045],"rotation":[0.70710676908493,0,0,0.707106828689575],"scale":[1,1,1],"extensions":{"KHR_lights_punctual":{"light":0}}},{"name":"Hemi","translation":[0,0.430146425962448,0],"rotation":[-1.04928368216406e-7,0,0,1],"scale":[1,1,1],"extensions":{"KHR_lights_punctual":{"light":1}}},{"name":"Spot","translation":[0,0.379633218050003,0],"rotation":[-1.04928368216406e-7,0,0,1],"scale":[1,1,1],"extensions":{"KHR_lights_punctual":{"light":2}}},{"name":"Point_001","translation":[0,0.191125229001045,-3.80937992261465e-9],"rotation":[-1.04928368216406e-7,0,0,1],"scale":[1,1,1],"extensions":{"KHR_lights_punctual":{"light":0}}}],"extensions":{"KHR_lights_punctual":{"lights":[{"name":"","color":[1,1,1],"intensity":1,"type":"point"},{"name":"","color":[1,1,1],"intensity":1,"type":"directional"},{"name":"","color":[0.46000000834465,1,0.0700000002980232],"intensity":30,"type":"spot","spot":{"innerConeAngle":1.52960658073425,"outerConeAngle":1.79943442344666}}]}}}